# xmcd
#
# Track frame offsets:
#	150
#	17210
#	31525
#	43257
#	55785
#	66210
#	77762
#	98705
#	109215
#	133875
#	148505
#	165712
#	177255
#	194807
#
# Disc length: 2747 seconds
#
# Revision: 0
# Processed by: cddbd v1.5.2PL0 Copyright (c) Steve Scherf et al.
# Submitted via: EasyCDDAExtractor 10.0.6.1
#
DISCID=c50ab90e
DTITLE=Various Artist - Eddie Crook Records may 1997
DYEAR=1997
DGENRE=Gospel
TTITLE0=Pfiefers - Where The River Runs Red
TTITLE1=The MaHarrys - Working On A Building
TTITLE2=The Hunts - A Wonderful Change
TTITLE3=The Bradleys - At The Well
TTITLE4=Booth Brothers - Oh What A Happy Day
TTITLE5=The Bradys - Amen Corner
TTITLE6=The Tolers - Lord I Need A Miracle Today
TTITLE7=Mast Brothers - In The Sweet Forever
TTITLE8=Forgiven - The Beginning to The End
TTITLE9=Gabbards - That's Life
TTITLE10=Gerald Sweatman - When Mama's Gone
TTITLE11=The Wrights - Lord Send Down The Rain
TTITLE12=Goodwins - That's My Boy
TTITLE13=Larrene Cook - Whole Lot Of Shaking
EXTD=
EXTT0=
EXTT1=
EXTT2=
EXTT3=
EXTT4=
EXTT5=
EXTT6=
EXTT7=
EXTT8=
EXTT9=
EXTT10=
EXTT11=
EXTT12=
EXTT13=
PLAYORDER=
